# xmcd CD database file
#
# Track frame offsets:
#	150
#	22484
#	40349
#	62833
#	81103
#	102655
#	125018
#	146654
#	169844
#	185234
#	207938
#	222752
#	246674
#	262718
#	286577
#
# Disc length: 4191 seconds
#
# Revision: 0
# Processed by: cddbd v1.5.2PL0 Copyright (c) Steve Scherf et al.
# Submitted via: CDex 1.50
#
DISCID=ee105d0f
DTITLE=Oscar d'Leon - Grandes Exitos
DYEAR=1900
DGENRE=Salsa
TTITLE0=Como Olvidarte
TTITLE1=La Mazucamba
TTITLE2=Por Que Sera
TTITLE3=Senora
TTITLE4=Cualquiera
TTITLE5=Amor Verdadero
TTITLE6=Ya Lo Veras
TTITLE7=Tormenta De Amor
TTITLE8=Como Olvidarte
TTITLE9=Bailando Con Ella
TTITLE10=Parampampan
TTITLE11=Agua Que No Has De Beber
TTITLE12=Que Bueno Baila Usted
TTITLE13=Calculadora
TTITLE14=Mis Hijos
EXTD=
EXTT0=
EXTT1=
EXTT2=
EXTT3=
EXTT4=
EXTT5=
EXTT6=
EXTT7=
EXTT8=
EXTT9=
EXTT10=
EXTT11=
EXTT12=
EXTT13=
EXTT14=
PLAYORDER=
